<svg width="64" height="71" viewBox="0 0 64 71" fill="none" xmlns="http://www.w3.org/2000/svg">
<g filter="url(#filter0_d_4_36)">
<rect y="3" width="64" height="64" rx="12" fill="#A83227"/>
</g>
<path d="M34.832 52.616C31.9573 52.616 29.8107 51.832 28.392 50.264C27.0107 48.696 26.32 46.288 26.32 43.04V27.864H22.008L22.12 22.88H24.92C25.8907 22.88 26.6187 22.7307 27.104 22.432C27.5893 22.096 27.888 21.5173 28 20.696L28.56 16.384H32.2V22.88H40.208V27.976H32.2V42.872C32.2 44.328 32.536 45.3733 33.208 46.008C33.88 46.6427 34.8693 46.96 36.176 46.96C36.8853 46.96 37.5947 46.8853 38.304 46.736C39.0507 46.5493 39.76 46.2133 40.432 45.728V51.608C39.312 51.9813 38.2853 52.2427 37.352 52.392C36.4187 52.5413 35.5787 52.616 34.832 52.616Z" fill="#FEF6E6"/>
<defs>
<filter id="filter0_d_4_36" x="0" y="3" width="64" height="68" filterUnits="userSpaceOnUse" color-interpolation-filters="sRGB">
<feFlood flood-opacity="0" result="BackgroundImageFix"/>
<feColorMatrix in="SourceAlpha" type="matrix" values="0 0 0 0 0 0 0 0 0 0 0 0 0 0 0 0 0 0 127 0" result="hardAlpha"/>
<feOffset dy="4"/>
<feComposite in2="hardAlpha" operator="out"/>
<feColorMatrix type="matrix" values="0 0 0 0 0.435294 0 0 0 0 0.121569 0 0 0 0 0.0941176 0 0 0 1 0"/>
<feBlend mode="normal" in2="BackgroundImageFix" result="effect1_dropShadow_4_36"/>
<feBlend mode="normal" in="SourceGraphic" in2="effect1_dropShadow_4_36" result="shape"/>
</filter>
</defs>
</svg>
